<?xml version="1.0" encoding="utf-8"?>
<!-- Svg Vector Icons : http://www.onlinewebfonts.com/icon -->
<!DOCTYPE svg PUBLIC "-//W3C//DTD SVG 1.1//EN" "http://www.w3.org/Graphics/SVG/1.1/DTD/svg11.dtd">
<svg version="1.1" xmlns="http://www.w3.org/2000/svg" xmlns:xlink="http://www.w3.org/1999/xlink" x="0px" y="0px" viewBox="0 0 1000 1000" enable-background="new 0 0 1000 1000" xml:space="preserve">
<metadata> Svg Vector Icons : http://www.onlinewebfonts.com/icon </metadata>
<g><path d="M812.6,470c-31.2,18.5-47,45.9-47.4,82.2c-0.5,36.3-18.9,54.6-55.1,55.1c-36.3,0.5-63.7,16.3-82.2,47.4c-18.5,31.2-43.7,37.9-75.3,20.2c-31.6-17.7-63.3-17.7-95,0c-31.6,17.7-56.7,11-75.3-20.1c-18.5-31.2-45.9-47-82.2-47.4c-36.3-0.5-54.6-18.9-55.1-55.1c-0.5-36.2-16.3-63.7-47.5-82.2s-37.9-43.7-20.1-75.3c17.7-31.6,17.7-63.3,0-94.9c-17.7-31.6-11-56.7,20.1-75.3s47-45.9,47.4-82.2c0.5-36.3,18.9-54.6,55.1-55.1c36.2-0.5,63.7-16.3,82.2-47.4C400.8,8.7,425.9,2,457.5,19.6c31.6,17.7,63.3,17.7,95,0c31.6-17.7,56.7-11,75.3,20.2c18.5,31.2,45.9,47,82.2,47.4c36.3,0.5,54.6,18.9,55.1,55.1c0.5,36.3,16.3,63.7,47.4,82.2s37.9,43.7,20.2,75.3c-17.7,31.6-17.7,63.3,0,94.9C850.4,426.3,843.7,451.5,812.6,470z M660.6,190.1c-113.8,58.3-186,233.2-186,233.2l-44.4-86l-91.6,55.5c38.9,13.9,94.4,58.3,141.6,116.6c33.3-61.1,136-186,186-197.1C646.7,267.7,657.8,231.7,660.6,190.1z M292,623.4c87.8,1.9,59.6,74,130.8,75.7c0-1.9-137.5,285.1-137.5,285.1l-66-99.3L99.7,898.2l149-292.8C248.6,605.5,253.8,623.4,292,623.4z M637.8,676.3c24.9-21,2.7-47.9,111.6-59.3l150.9,281.3L782.7,883l-41.3,107L573.4,701C573.4,701,609.1,706.9,637.8,676.3z"/></g>
</svg>