<svg xmlns="http://www.w3.org/2000/svg" width="48" height="48" id="cogwheels"><g fill="#fff" transform="translate(7.475 -1012.873)"><circle cx="16.525" cy="1036.873" r="24" fill="#239fdb" fill-rule="evenodd"></circle><path fill="#0b5ecd" style="line-height:normal;text-indent:0;text-align:start;text-decoration-line:none;text-transform:none;block-progression:tb" d="M34.568 45.531a24 24 0 0 0 .319-.142 24 24 0 0 0 2.08-1.194 24 24 0 0 0 1.951-1.394 24 24 0 0 0 1.803-1.584 24 24 0 0 0 1.634-1.756 24 24 0 0 0 1.454-1.91 24 24 0 0 0 1.254-2.045 24 24 0 0 0 1.042-2.16 24 24 0 0 0 .788-2.157L36.09 20.387l-.432-.432v-.002l-.35.22a.512.512 0 0 1-.53 0 3.388 3.388 0 0 0-.532-.26L33.334 19v-.002h-.6v.004l-.078.406v.002a.5.5 0 0 1-.13.246.503.503 0 0 1-.243.143c-.378.092-.75.215-1.01.377-.158.1-.374.1-.533 0l-.35-.22v.001l-.43.428v.002l.161.244-5.433-5.434-.875-.875-.665.416a.5.5 0 0 1-.527 0 4.525 4.525 0 0 0-.555-.277L20.606 13h-1.192l-.166.791a.511.511 0 0 1-.371.383c-.276.067-.54.142-.79.234-.247.092-.48.2-.689.33a.513.513 0 0 1-.529 0l-.662-.416-.879.88.422.696a.51.51 0 0 1-.002.52c-.26.426-.44.9-.566 1.42a.511.511 0 0 1-.37.369l-.802.19v1.208l1.5 1.5c.073.164.145.33.238.48a.511.511 0 0 1 0 .52l-.426.704.83.869 7.711 7.71c-.061.144-.114.29-.15.44a.51.51 0 0 1-.36.365l-.343.09v.447l.828.829c.063.156.135.31.223.453a.512.512 0 0 1-.008.533l-.186.285.309.309L34.568 45.53z" color="#000" font-family="sans-serif" font-weight="400" transform="translate(-7.475 1012.873)"></path><path style="line-height:normal;text-indent:0;text-align:start;text-decoration-line:none;text-transform:none;block-progression:tb" d="M11.94 1025.873h1.191l.164.764c.04.183.192.338.375.38a4.984 4.984 0 0 1 1.477.594.51.51 0 0 0 .527 0l.664-.416.875.875-.416.664a.511.511 0 0 0 0 .528c.28.454.503.958.625 1.476a.512.512 0 0 0 .38.373l.734.164v1.256l-.791.166a.511.511 0 0 0-.383.37c-.136.545-.3 1.03-.563 1.447a.511.511 0 0 0-.004.525l.416.687-.867.83-.67-.42a.51.51 0 0 0-.527 0c-.454.28-.93.47-1.475.594a.512.512 0 0 0-.377.381l-.164.762H11.94l-.166-.79a.512.512 0 0 0-.371-.382c-.543-.132-1.042-.32-1.477-.594a.513.513 0 0 0-.53 0l-.718.444-.83-.87.426-.703a.511.511 0 0 0 0-.52c-.26-.425-.441-.898-.567-1.42a.511.511 0 0 0-.369-.37l-.802-.19v-1.209l.802-.19a.511.511 0 0 0 .37-.368c.125-.52.306-.994.566-1.42a.511.511 0 0 0 .002-.52l-.422-.697.879-.879.662.416a.513.513 0 0 0 .53 0c.418-.26.926-.43 1.478-.564a.511.511 0 0 0 .37-.383zm.596 3c-1.652 0-3 1.35-3 3s1.348 3 3 3c1.65 0 3-1.35 3-3s-1.35-3-3-3zm0 1c1.11 0 2 .89 2 2 0 1.11-.89 2-2 2-1.11 0-2-.89-2-2 0-1.11.89-2 2-2zm12.724 2h.6l.095.398c.043.18.192.329.372.371.346.081.677.222.976.407a.512.512 0 0 0 .531 0l.35-.221.432.432-.221.35a.512.512 0 0 0-.004.53c.184.3.325.631.406.977.043.18.192.329.371.371l.399.096v.615l-.426.098a.51.51 0 0 0-.373.368 3.227 3.227 0 0 1-.406.947.511.511 0 0 0-.004.527l.232.383-.406.406-.35-.222a.512.512 0 0 0-.53 0c-.28.172-.625.287-1.007.375a.512.512 0 0 0-.375.375l-.097.424h-.565l-.078-.407a.512.512 0 0 0-.373-.39 3.522 3.522 0 0 1-1.008-.407.513.513 0 0 0-.549.01l-.343.235-.422-.42.248-.38a.512.512 0 0 0 .008-.532 3.419 3.419 0 0 1-.41-.951.511.511 0 0 0-.374-.37l-.423-.098v-.593l.44-.12a.511.511 0 0 0 .356-.365c.077-.317.222-.61.41-.92a.512.512 0 0 0-.007-.533l-.248-.379.43-.43.349.221c.159.1.375.1.533 0 .26-.162.632-.285 1.01-.377a.512.512 0 0 0 .373-.39l.078-.408zm.307 1.75a2.262 2.262 0 0 0-2.25 2.25c0 1.233 1.027 2.219 2.25 2.219a2.223 2.223 0 0 0 2.219-2.22c0-1.221-.986-2.25-2.22-2.25zm0 1c.681 0 1.219.558 1.219 1.25s-.527 1.219-1.22 1.219c-.692 0-1.25-.538-1.25-1.22 0-.68.57-1.25 1.25-1.25zm-6.723 7.25h.443l.07.326c.04.184.193.338.376.38.31.074.597.188.851.345a.513.513 0 0 0 .536-.012l.279-.182.322.334-.178.297a.511.511 0 0 0 .004.52c.157.254.27.54.344.851a.512.512 0 0 0 .377.373l.299.068v.447l-.326.07a.512.512 0 0 0-.38.37 2.992 2.992 0 0 1-.343.853.511.511 0 0 0-.006.523l.174.291-.291.291-.291-.174a.51.51 0 0 0-.52 0c-.25.155-.557.27-.88.344a.512.512 0 0 0-.377.381l-.07.324h-.409l-.074-.351a.512.512 0 0 0-.371-.383 2.841 2.841 0 0 1-.852-.344.513.513 0 0 0-.53 0l-.32.197-.308-.308.185-.285a.512.512 0 0 0 .008-.534 2.916 2.916 0 0 1-.347-.826.51.51 0 0 0-.36-.365l-.344-.09v-.447l.344-.09a.51.51 0 0 0 .36-.365c.07-.29.192-.571.347-.826a.512.512 0 0 0-.008-.534l-.185-.285.334-.334.285.186a.512.512 0 0 0 .537.01c.247-.154.54-.27.854-.346a.512.512 0 0 0 .37-.379zm.223 1.469a2.036 2.036 0 0 0-2.031 2.03c0 1.119.9 2.063 2.03 2.063 1.131 0 2.032-.944 2.032-2.062a2.036 2.036 0 0 0-2.031-2.031zm0 1a1.01 1.01 0 0 1 1.031 1.03c0 .587-.457 1.063-1.031 1.063-.575 0-1.031-.476-1.031-1.062a1.01 1.01 0 0 1 1.03-1.031z" color="#000" font-family="sans-serif" font-weight="400" overflow="visible"></path></g></svg>