<svg xmlns="http://www.w3.org/2000/svg" width="48" height="48" id="apple"><g transform="translate(0 -1004.362)"><circle cx="24" cy="1028.362" r="24" fill="#ef4c45" fill-rule="evenodd"></circle><path style="line-height:normal;text-indent:0;text-align:start;text-decoration-line:none;text-decoration-style:solid;text-decoration-color:#000;text-transform:none;block-progression:tb;isolation:auto;mix-blend-mode:normal" fill="#df2209" d="M28.25 47.611a24 24 0 0 0 2.17-.486 24 24 0 0 0 2.277-.756 24 24 0 0 0 2.19-.98 24 24 0 0 0 2.08-1.194 24 24 0 0 0 1.951-1.394 24 24 0 0 0 1.803-1.584 24 24 0 0 0 1.634-1.756 24 24 0 0 0 1.454-1.91 24 24 0 0 0 1.254-2.045 24 24 0 0 0 1.042-2.16 24 24 0 0 0 .823-2.254 24 24 0 0 0 .593-2.324 24 24 0 0 0 .36-2.372 24 24 0 0 0 .1-2.003L30.347 6.76l-.371.02a7.604 7.604 0 0 0-3.416 1.027 7.502 7.502 0 0 0-3.149 3.6 7.284 7.284 0 0 0-.441 4.036 7.321 7.321 0 0 0 .324 1.213l.127.35.38.38c-.832-.034-1.582-.262-2.378-.534a7.323 7.323 0 0 0-3.192-.743H17.932C14.068 16.267 11 19.402 11 23.215c0 3.451 1.483 7.087 3.328 9.896.326.497.666.956 1.01 1.395.075.096.149.192.225.285.338.416.68.805 1.025 1.152.016.017.032.039.049.055L28.25 47.611z" color="#000" font-family="sans-serif" font-weight="400" transform="translate(0 1004.362)"></path><path style="line-height:normal;text-indent:0;text-align:start;text-decoration-line:none;text-decoration-style:solid;text-decoration-color:#000;text-transform:none;block-progression:tb;isolation:auto;mix-blend-mode:normal" fill="#fff" d="m22.348.25-.371.02c-3.985.226-7.117 3.479-7.118 7.414.003.84.15 1.672.436 2.462l.127.35.373-.02c3.985-.226 7.115-3.479 7.115-7.414A7.317 7.317 0 0 0 22.475.6l-.127-.35Zm-.739 1.125c.158.555.3 1.116.301 1.693-.001 3.257-2.496 5.905-5.752 6.307-.157-.554-.297-1.115-.299-1.691.002-3.257 2.496-5.906 5.75-6.309ZM9.932 9.6C6.068 9.758 3 12.892 3 16.705c0 3.452 1.483 7.087 3.328 9.897.923 1.404 1.935 2.602 2.928 3.464.992.863 1.955 1.424 2.898 1.424 1.507 0 2.347-.311 2.885-.629.27-.159.457-.304.594-.384.136-.08.203-.108.351-.108.149 0 .221.03.362.11.14.08.331.226.603.384.545.317 1.39.627 2.897.627.943 0 1.906-.56 2.898-1.424.993-.862 2.005-2.06 2.928-3.464C27.517 23.792 29 20.157 29 16.705c-.005-3.838-3.116-6.978-7.006-7.098-1.292-.068-2.538.388-3.488.764l.021-.012c-.836.285-1.662.532-2.523.532-.917 0-1.719-.255-2.58-.55a7.322 7.322 0 0 0-3.192-.741H9.932zm.04 1h.259a6.3 6.3 0 0 1 2.808.664l.03.013.03.012c.873.298 1.804.602 2.905.602 1.05 0 1.989-.293 2.846-.584h.023c.924-.366 2.06-.753 3.076-.698h.012c3.372.102 6.035 2.801 6.04 6.102 0 3.16-1.404 6.666-3.165 9.348-.88 1.34-1.847 2.475-2.748 3.257-.9.783-1.743 1.18-2.242 1.18-1.378 0-1.974-.248-2.395-.492-.21-.122-.383-.257-.607-.387a1.728 1.728 0 0 0-.86-.242c-.34 0-.635.114-.857.244-.223.13-.39.265-.596.387-.412.243-1 .49-2.377.49-.5 0-1.341-.397-2.242-1.18-.9-.782-1.868-1.917-2.748-3.257C5.404 23.37 4 19.866 4 16.705c0-3.277 2.625-5.968 5.973-6.105z" color="#000" font-family="sans-serif" font-weight="400" overflow="visible" transform="translate(8 1010.872)"></path></g></svg>